<svg width="840.846" height="913.28" xml:space="preserve" style="clip-rule:evenodd;fill-rule:evenodd;stroke-miterlimit:2" xmlns="http://www.w3.org/2000/svg"><path d="M200.597 2.018v135.858s-.226 15.546-.865 21.508-1.236 14.316-3.62 20.868c-2.556 7.024-4.898 11.712-7.24 15.119-2.342 3.407-5.41 6.944-9.263 9.9-4.578 3.51-6.389 4.578-9.689 6.284-3.805 1.967-5.962 2.555-9.583 3.62-3.62 1.064-7.878 1.916-11.285 2.342-3.407.425-7.666.639-11.073.852-3.407.213-11.712.426-14.268.426H78.09c-2.555 0-10.86-.213-14.267-.426s-7.666-.427-11.073-.852c-3.408-.426-7.666-1.278-11.286-2.342-3.62-1.065-5.777-1.653-9.583-3.62-3.3-1.706-5.11-2.774-9.688-6.284-3.854-2.956-6.921-6.493-9.263-9.9-2.343-3.407-4.685-8.095-7.241-15.119-2.383-6.552-2.981-14.906-3.62-20.868-.638-5.962-.865-21.508-.865-21.508V2.018Z" style="fill:#fff;fill-rule:nonzero" transform="translate(.004 -3.388) scale(4.16667)"/><path d="M200.597 2.018v135.858s-.226 15.546-.865 21.508-1.236 14.316-3.62 20.868c-2.556 7.024-4.898 11.712-7.24 15.119-2.342 3.407-5.41 6.944-9.263 9.9-4.578 3.51-6.389 4.578-9.689 6.284-3.805 1.967-5.962 2.555-9.583 3.62-3.62 1.064-7.878 1.916-11.285 2.342-3.407.425-7.666.639-11.073.852-3.407.213-11.712.426-14.268.426H78.09c-2.555 0-10.86-.213-14.267-.426s-7.666-.427-11.073-.852c-3.408-.426-7.666-1.278-11.286-2.342-3.62-1.065-5.777-1.653-9.583-3.62-3.3-1.706-5.11-2.774-9.688-6.284-3.854-2.956-6.921-6.493-9.263-9.9-2.343-3.407-4.685-8.095-7.241-15.119-2.383-6.552-2.981-14.906-3.62-20.868-.638-5.962-.865-21.508-.865-21.508V2.018Z" style="fill:none;stroke:#231f20;stroke-width:2.41px" transform="translate(.004 -3.388) scale(4.16667)"/><path d="M195.386 7.465v129.036s-.215 14.737-.82 20.39c-.606 5.651-1.228 13.978-3.39 20.224-1.125 3.25-3.062 8.5-6.5 14-2.078 3.325-4.909 6.824-8.562 9.625-4.34 3.328-6.558 4.638-9.75 6.125-4.563 2.125-6.294 2.578-9.75 3.5-3.75 1-7.139 1.529-10.375 1.875-3.5.375-7.125.5-10 .625-3.234.141-11.318.347-13.74.347h-21.645.058-21.636c-2.422 0-10.506-.206-13.74-.347-2.875-.125-6.5-.25-10-.625-3.236-.346-6.625-.875-10.375-1.875-3.456-.922-5.187-1.375-9.75-3.5-3.192-1.487-5.41-2.797-9.75-6.125-3.653-2.801-6.484-6.3-8.562-9.625-3.438-5.5-5.375-10.75-6.5-14-2.162-6.246-2.785-14.573-3.391-20.224-.605-5.653-.82-20.39-.82-20.39V7.465Z" style="fill:none;stroke:#231f20;stroke-width:2.41px" transform="translate(.004 -3.388) scale(4.16667)"/><path d="M6.388 15.786 195.037 78M137.593 7.465l57.444 18.944M118.197 7.465l71.989 173.196M171.063 7.465l24.267 58.383M6.388 67.376l188.649 62.214M6.488 120.276l37.118 89.301M65.33 7.465l84.872 204.186M6.388 118.967l183.694 60.58M9.241 171.499l125.989 41.548M12.464 7.465 98.036 213.34" style="fill:none;stroke:#231f20;stroke-width:1.56px" transform="translate(.004 -3.388) scale(4.16667)"/><path d="M172.87 12.116h22.667M120.204 12.116h31.5M14.37 12.116h52.833M174.37 15.262h21.167M121.371 15.262h39.999M15.536 15.262h53M175.537 18.409h20M122.704 18.409h47.666M17.036 18.409h52.667M6.036 18.409h8.667M180.87 21.555h14.667M124.204 21.555h52.666M24.203 21.555H71.37M6.036 21.555h12.167M125.371 24.702h52.833M32.87 24.702h39.666M6.036 24.702h13.5M126.704 27.848h53M43.536 27.848h30.5M6.036 27.848h15M128.037 30.995h53M52.203 30.995H75.37M6.036 30.995H22.37M129.371 34.141h52.999M61.536 34.141h14.667M6.036 34.141h17.5M130.703 37.288h53.167M70.87 37.288h6.833M6.036 37.288H24.87M131.871 40.434h52.999M6.036 40.434h20M133.371 43.581h52.666M80.203 43.581H91.37M6.036 43.581h21.5M134.537 46.727h53M81.536 46.727h19.334M6.036 46.727H28.87M135.704 49.874h53.166M82.87 49.874h27.001M6.036 49.874h24M137.037 53.02h53.167M84.203 53.02h34.834M6.036 53.02h25.667M138.371 56.166h52.999M85.536 56.166h43.335M6.036 56.166h26.667M139.704 59.313h53M86.703 59.313h51.168M6.036 59.313h28.167M148.037 62.459h47.5M88.203 62.459h52.834M6.036 62.459H35.37M156.87 65.606h38.667M89.37 65.606h53M6.036 65.606h30.667M166.537 68.752h29M90.87 68.752h52.834M10.203 68.752h27.833M176.037 71.899h19.5M92.203 71.899h52.834M19.87 71.899h19.333M186.037 75.045h9.5M93.536 75.045h52.834M28.703 75.045h12M94.703 78.192h53.001M38.703 78.192h3.5M96.036 81.338h52.834M43.536 81.338h5.5M97.37 84.485h53M44.536 84.485H57.87M98.703 87.631h53.001M45.703 87.631h21.833M100.037 90.778h52.833M47.37 90.778h29.333M101.37 93.924h53M48.203 93.924H86.87M102.704 97.071h52.833M49.703 97.071h46M106.704 100.217h50.333M50.87 100.217h52.834M115.37 103.363h42.834M52.203 103.363h53.167M124.37 106.51h35M53.703 106.51h53.167M133.87 109.656h26.667M55.036 109.656h52.834M143.204 112.803h18.666M56.37 112.803h53.167M152.704 115.949h10.666M57.37 115.949h53.334M58.87 119.096h53.167M165.87 122.242h7.667M60.036 122.242h53.168M6.036 122.242h11M167.037 125.389h15.167M61.37 125.389h53.167M8.536 125.389h17M168.537 128.535h22.833M62.703 128.535h53.167M10.036 128.535H34.87M169.704 131.682h25.833M63.87 131.682h53.167M11.203 131.682h34M171.037 134.828h24.5M65.37 134.828h53M12.536 134.828H54.37M172.537 137.975h23M66.703 137.975h53.167M13.703 137.975h50.333M173.537 141.121h22M74.036 141.121h47.168M15.203 141.121h52.833M175.037 144.268h20.5M83.203 144.268h39.001M16.37 144.268h52.833M176.37 147.414h19.167M92.37 147.414h31.334M17.703 147.414h52.833M177.704 150.561h17.833M101.871 150.561h23.166M19.036 150.561h53M178.87 153.707h16.667M111.704 153.707h14.5M20.37 153.707h52.833M180.204 156.854h14.5M120.537 156.854h7M21.703 156.854h52.833M181.704 160h12.5M128.871 160h2.333M23.036 160H75.87M182.87 163.146h11M130.037 163.146h11M24.203 163.146h53M184.37 166.293h9.334M131.204 166.293h18.5M25.536 166.293H78.87M185.704 169.439h7.333M132.704 169.439h26.666M27.036 169.439h53M187.037 172.586h5.5M134.204 172.586h34.333M28.37 172.586h52.833M9.37 172.586h4M188.037 175.732h4M135.204 175.732h42.666M29.203 175.732h53.333M10.203 175.732H22.37M136.704 178.879h51.352M30.87 178.879h53M11.37 178.879h19.5M137.871 182.025h51.5M41.036 182.025h44M12.703 182.025h19.333M139.204 185.172h48.667M50.536 185.172h36M14.036 185.172h19.5M140.537 188.318h45.834M60.37 188.318h27.333M15.536 188.318h19.167M141.871 191.465h42.666M70.536 191.465H88.87M17.203 191.465h18.833M143.204 194.611h38.833M79.036 194.611H90.37M19.536 194.611h18M144.371 197.758h35.166M88.203 197.758h3.333M22.37 197.758h16.166M145.704 200.904h30.333M92.87 200.904h5.5M25.703 200.904h14.333M147.037 204.051h24.667M94.036 204.051h13.835M30.203 204.051H41.37M148.371 207.197h17.5M95.37 207.197h22.501M36.036 207.197h6.5M149.704 210.344h6.667M96.703 210.344h30.168" style="fill:none;stroke:#231f20;stroke-width:1.13px" transform="translate(.004 -3.388) scale(4.16667)"/></svg>