<?xml version="1.0" encoding="utf-8"?>
<svg version="1.1" xmlns="http://www.w3.org/2000/svg" width="200px" height="440px">
<rect id="rect2502" fill="#003399" width="200" height="440"/>
	<polygon fill="#FC0" points="100,52.763 97.248,61.232 88.343,61.232 95.547,66.466 92.796,74.936 100,69.701 107.204,74.936 
		104.453,66.466 111.657,61.232 102.752,61.232"/>
	<polygon fill="#FC0" points="63.229,62.615 60.477,71.085 51.572,71.085 58.777,76.319 56.025,84.788 63.229,79.554 
		70.434,84.788 67.682,76.319 74.886,71.085 65.981,71.085"/>
	<polygon fill="#FC0" points="26.459,143.204 33.663,148.439 30.911,139.969 38.116,134.735 29.21,134.735 26.459,126.266 
		23.707,134.735 14.802,134.735 22.006,139.969 19.254,148.439"/>
	<polygon fill="#FC0" points="36.347,89.495 33.595,97.964 24.69,97.964 31.895,103.199 29.143,111.668 36.347,106.434 
		43.552,111.668 40.8,103.199 48.004,97.964 39.099,97.964"/>
	<polygon fill="#FC0" points="136.771,62.596 134.019,71.066 125.114,71.066 132.318,76.3 129.566,84.769 136.771,79.535 
		143.975,84.769 141.223,76.3 148.428,71.066 139.523,71.066"/>
	<polygon fill="#FC0" points="185.198,134.716 176.293,134.716 173.541,126.246 170.79,134.716 161.884,134.716 169.089,139.95 
		166.337,148.419 173.541,143.185 180.746,148.419 177.994,139.95 	"/>
	<polygon fill="#FC0" points="156.448,111.649 163.653,106.414 170.857,111.649 168.105,103.179 175.31,97.945 166.405,97.945 
		163.653,89.476 160.901,97.945 151.996,97.945 159.2,103.179"/>
	<polygon fill="#FC0" points="102.752,208.238 100,199.769 97.248,208.238 88.343,208.238 95.547,213.472 92.796,221.941 
		100,216.707 107.204,221.941 104.453,213.472 111.657,208.238"/>
	<polygon fill="#FC0" points="139.523,198.385 136.771,189.916 134.019,198.385 125.114,198.385 132.318,203.619 
		129.566,212.089 136.771,206.854 143.975,212.089 141.223,203.619 148.428,198.385 	"/>
	<polygon fill="#FC0" points="166.405,171.506 163.653,163.036 160.901,171.506 151.996,171.506 159.2,176.74 156.448,185.209 
		163.653,179.975 170.857,185.209 168.105,176.74 175.31,171.506 	"/>
	<polygon fill="#FC0" points="65.981,198.404 63.229,189.935 60.477,198.404 51.572,198.404 58.777,203.639 56.025,212.108 
		63.229,206.874 70.434,212.108 67.682,203.639 74.886,198.404"/>
	<polygon fill="#FC0" points="39.099,171.525 36.347,163.056 33.595,171.525 24.69,171.525 31.895,176.759 29.143,185.229 
		36.347,179.994 43.552,185.229 40.8,176.759 48.004,171.525"/>
	<path fill="#FFFFFF" d="M58.656,326.595h36.145v58.376c-5.758,3.038-15.674,5.758-30.228,5.758
		c-35.825,0-54.858-24.31-54.858-57.417s19.033-57.417,54.858-57.417c12.795,0,22.87,2.879,27.189,4.798l-1.119,18.393
		c-6.557-3.999-15.514-6.878-25.75-6.878c-21.751,0-33.426,17.913-33.426,41.103c0,25.11,11.355,41.103,32.307,41.103
		c4.798,0,9.116-0.96,11.835-2.08v-30.067H58.656V326.595z"/>
	<path fill="#FFF" d="M116.875,277.496h34.866c19.831,0,33.266,8.957,33.266,29.428c0,14.553-9.116,24.309-21.591,26.229v0.48
		c4.158,0.64,8.796,2.559,12.314,12.955l14.554,42.543h-21.751l-11.035-36.305c-2.72-8.796-7.997-11.675-15.514-11.675h-4.638v47.98
		h-20.472V277.496z M145.663,326.115c10.876,0,18.233-5.598,18.233-16.953c0-12.795-6.718-15.994-18.233-15.994h-8.316v32.946
		H145.663z"/>
</svg>
